HIERARCHY
ROOT hip 
{
	OFFSET 0.000000 0.000000 0.000000
	CHANNELS 6 Xposition Yposition Zposition Xrotation Zrotation Yrotation 
	JOINT abdomen
	{
		OFFSET 0.000000 3.422050 0.000000
		CHANNELS 3 Xrotation Zrotation Yrotation 
		JOINT chest
		{
			OFFSET 0.000000 8.486693 -0.684411
			CHANNELS 3 Xrotation Zrotation Yrotation 
			JOINT neck
			{
				OFFSET 0.000000 10.266162 -0.273764
				CHANNELS 3 Xrotation Zrotation Yrotation 
				JOINT head
				{
					OFFSET 0.000000 3.148285 0.000000
					CHANNELS 3 Xrotation Zrotation Yrotation 
					End Site
					{
						OFFSET 0.000000 3.148289 0.000000
					}
				}
			}
			JOINT lCollar
			{
				OFFSET 3.422053 6.707223 -0.821293
				CHANNELS 3 Yrotation Zrotation Xrotation 
				JOINT lShldr
				{
					OFFSET 3.285171 0.000000 0.000000
					CHANNELS 3 Zrotation Yrotation Xrotation 
					JOINT lForeArm
					{
						OFFSET 10.129278 0.000000 0.000000
						CHANNELS 3 Yrotation Zrotation Xrotation 
						JOINT lHand
						{
							OFFSET 8.486692 0.000000 0.000000
							CHANNELS 3 Zrotation Yrotation Xrotation 
							End Site
							{
								OFFSET 4.106464 0.000000 0.000000
							}
						}
					}
				}
			}
			JOINT rCollar
			{
				OFFSET -3.558935 6.707223 -0.821293
				CHANNELS 3 Yrotation Zrotation Xrotation 
				JOINT rShldr
				{
					OFFSET -3.148289 0.000000 0.000000
					CHANNELS 3 Zrotation Yrotation Xrotation 
					JOINT rForeArm
					{
						OFFSET -10.266159 0.000000 0.000000
						CHANNELS 3 Yrotation Zrotation Xrotation 
						JOINT rHand
						{
							OFFSET -8.349810 0.000000 0.000000
							CHANNELS 3 Zrotation Yrotation Xrotation 
							End Site
							{
								OFFSET -4.106464 0.000000 0.000000
							}
						}
					}
				}
			}
		}
	}
	JOINT lThigh
	{
		OFFSET 5.338403 -1.642589 1.368821
		CHANNELS 3 Xrotation Zrotation Yrotation 
		JOINT lShin
		{
			OFFSET -2.053232 -20.121670 0.000000
			CHANNELS 3 Xrotation Zrotation Yrotation 
			JOINT lFoot
			{
				OFFSET 0.000000 -19.300380 -1.231939
				CHANNELS 3 Xrotation Yrotation Zrotation 
				End Site
				{
					OFFSET 0.000000 -2.463878 4.653993
				}
			}
		}
	}
	JOINT rThigh
	{
		OFFSET -5.338403 -1.642589 1.368821
		CHANNELS 3 Xrotation Zrotation Yrotation 
		JOINT rShin
		{
			OFFSET 2.053232 -20.121670 0.000000
			CHANNELS 3 Xrotation Zrotation Yrotation 
			JOINT rFoot
			{
				OFFSET 0.000000 -19.300380 -1.231939
				CHANNELS 3 Xrotation Yrotation Zrotation 
				End Site
				{
					OFFSET 0.000000 -2.463878 4.653993
				}
			}
		}
	}
}
MOTION
Frames: 16
Frame Time: 0.033325
0.000000 43.528500 0.000000 0.000000 0.000000 0.000000 0.000000 0.000000 0.000000 0.000000 0.000000 0.000000 0.000000 0.000000 0.000000 0.000000 0.000000 0.000000 0.000000 0.000000 0.000000 0.000000 0.000000 0.000000 0.000000 0.000000 0.000000 0.000000 0.000000 0.000000 0.000000 0.000000 0.000000 0.000000 0.000000 0.000000 0.000000 0.000000 0.000000 0.000000 0.000000 0.000000 0.000000 0.000000 0.000000 0.000000 0.000000 0.000000 0.000000 0.000000 0.000000 0.000000 0.000000 0.000000 0.000000 0.000000 0.000000 0.000000 0.000000 0.000000 
0.000000 43.549526 0.000000 0.099663 0.000000 0.000000 14.099174 0.000000 0.000000 11.097925 0.000000 0.000000 -29.202955 0.026703 -0.001536 -44.901302 0.000000 0.000000 -3.100477 2.001340 12.550839 48.794292 8.452557 -114.772942 -90.112282 1.031612 -0.434229 3.191218 -6.974240 12.274408 1.512587 -2.148937 4.949856 -54.985146 36.554642 -112.869141 93.373856 -31.044603 -3.156090 2.972800 -0.375632 -6.514846 -100.877647 1.792180 -0.118480 111.362686 -3.168963 -0.972952 29.873171 -0.126438 0.618274 -101.280434 -4.081288 -0.581400 113.446831 2.168498 -0.274900 29.957985 0.819717 0.864941 
0.000000 43.574413 0.000000 0.099663 0.000000 0.000000 14.099174 0.000000 0.000000 10.712363 0.000000 0.000000 -29.202955 0.026703 -0.001536 -44.901302 0.000000 0.000000 -3.109981 1.788098 13.071383 48.793530 8.453561 -114.774239 -90.112282 1.030906 -0.434936 3.350892 -7.072621 12.562009 1.756051 -2.119934 5.446208 -54.941860 36.546635 -112.844971 93.374466 -31.044075 -3.156114 3.052721 -0.025353 -6.302389 -100.877647 1.792180 -0.118480 111.362686 -3.168963 -0.972952 29.873171 -0.126438 0.618274 -101.280434 -4.081288 -0.581400 113.446831 2.168498 -0.274900 29.957985 0.819717 0.864941 
0.000000 43.599300 0.000000 0.099663 0.000000 0.000000 14.099174 0.000000 0.000000 10.326778 0.000000 0.000000 -29.202955 0.026703 -0.001536 -44.901302 0.000000 0.000000 -3.117546 1.574752 13.591894 48.792774 8.454565 -114.775528 -90.112274 1.030200 -0.435644 3.510103 -7.171796 12.849398 1.999278 -2.088821 5.942481 -54.898590 36.538624 -112.820808 93.375076 -31.043552 -3.156141 3.133945 0.324650 -6.089423 -100.877647 1.792180 -0.118480 111.362686 -3.168963 -0.972952 29.873171 -0.126438 0.618274 -101.280434 -4.081288 -0.581400 113.446831 2.168498 -0.274900 29.957985 0.819717 0.864941 
0.000000 43.624187 0.000000 0.099663 0.000000 0.000000 14.099174 0.000000 0.000000 9.941180 0.000000 0.000000 -29.202955 0.026703 -0.001536 -44.901302 0.000000 0.000000 -3.123171 1.361331 14.112367 48.792019 8.455568 -114.776825 -90.112267 1.029494 -0.436351 3.668846 -7.271763 13.136572 2.242238 -2.055603 6.438641 -54.855339 36.530602 -112.796684 93.375694 -31.043022 -3.156165 3.216479 0.674362 -5.875943 -100.877647 1.792180 -0.118480 111.362686 -3.168963 -0.972952 29.873171 -0.126438 0.618274 -101.280434 -4.081288 -0.581400 113.446831 2.168498 -0.274900 29.957985 0.819717 0.864941 
0.000000 43.649078 0.000000 0.099663 0.000000 0.000000 14.099174 0.000000 0.000000 9.555579 0.000000 0.000000 -29.202955 0.026703 -0.001536 -44.901302 0.000000 0.000000 -3.126857 1.147863 14.632791 48.791267 8.456573 -114.778122 -90.112267 1.028788 -0.437058 3.827114 -7.372515 13.423525 2.484901 -2.020283 6.934655 -54.812119 36.522579 -112.772575 93.376320 -31.042496 -3.156189 3.300323 1.023768 -5.661937 -100.877647 1.792180 -0.118480 111.362686 -3.168963 -0.972952 29.873171 -0.126438 0.618274 -101.280434 -4.081288 -0.581400 113.446831 2.168498 -0.274900 29.957985 0.819717 0.864941 
0.000000 43.673965 0.000000 0.099663 0.000000 0.000000 14.099174 0.000000 0.000000 9.169980 0.000000 0.000000 -29.202955 0.026703 -0.001536 -44.901302 0.000000 0.000000 -3.128603 0.934375 15.153152 48.790508 8.457576 -114.779388 -90.112259 1.028082 -0.437766 4.132950 -7.382428 13.643966 2.727238 -1.982865 7.430494 -54.768917 36.514549 -112.748497 93.376930 -31.041967 -3.156214 3.385482 1.372854 -5.447396 -100.877647 1.792180 -0.118480 111.362686 -3.168963 -0.972952 29.873171 -0.126438 0.618274 -101.280434 -4.081288 -0.581400 113.446831 2.168498 -0.274900 29.957985 0.819717 0.864941 
0.000000 43.698853 0.000000 0.099663 0.000000 0.000000 14.099174 0.000000 0.000000 8.784395 0.000000 0.000000 -29.202955 0.026703 -0.001536 -44.901302 0.000000 0.000000 -3.128410 0.720895 15.673440 48.789745 8.458580 -114.780678 -90.112251 1.027376 -0.438473 4.438757 -7.393509 13.864361 2.969220 -1.943357 7.926124 -54.725727 36.506508 -112.724442 93.377541 -31.041437 -3.156239 3.471958 1.721604 -5.232308 -100.877647 1.792180 -0.118480 111.362686 -3.168963 -0.972952 29.873171 -0.126438 0.618274 -101.280434 -4.081288 -0.581400 113.446831 2.168498 -0.274900 29.957985 0.819717 0.864941 
0.000000 43.723740 0.000000 0.099663 0.000000 0.000000 14.099174 0.000000 0.000000 8.398832 0.000000 0.000000 -29.202955 0.026703 -0.001536 -44.901302 0.000000 0.000000 -3.126278 0.507452 16.193644 48.788994 8.459584 -114.781975 -90.112244 1.026670 -0.439180 4.744521 -7.405753 14.084691 3.210818 -1.901763 8.421514 -54.682568 36.498466 -112.700409 93.378151 -31.040913 -3.156264 3.559755 2.070004 -5.016665 -100.877647 1.792180 -0.118480 111.362686 -3.168963 -0.972952 29.873171 -0.126438 0.618274 -101.280434 -4.081288 -0.581400 113.446831 2.168498 -0.274900 29.957985 0.819717 0.864941 
0.000000 43.698853 0.000000 0.099663 0.000000 0.000000 14.099174 0.000000 0.000000 8.798949 0.000000 0.000000 -29.202955 0.026703 -0.001536 -44.901302 0.000000 0.000000 -3.128014 0.722972 15.654399 48.788235 8.460587 -114.783257 -90.112236 1.025965 -0.439887 4.590218 -7.248678 13.754476 2.960362 -1.942898 7.908948 -54.639412 36.490417 -112.676384 93.378769 -31.040386 -3.156290 3.468585 1.717122 -5.237998 -100.877647 1.792180 -0.118480 111.362686 -3.168963 -0.972952 29.873171 -0.126438 0.618274 -101.280434 -4.081288 -0.581400 113.446831 2.168498 -0.274900 29.957985 0.819717 0.864941 
0.000000 43.673965 0.000000 0.099663 0.000000 0.000000 14.099174 0.000000 0.000000 9.199094 0.000000 0.000000 -29.202955 0.026703 -0.001536 -44.901302 0.000000 0.000000 -3.127722 0.938527 15.115060 48.787479 8.461594 -114.784554 -90.112228 1.025259 -0.440595 4.435057 -7.092486 13.423944 2.709512 -1.981795 7.396131 -54.596291 36.482361 -112.652405 93.379379 -31.039856 -3.156314 3.378788 1.363868 -5.458749 -100.877647 1.792180 -0.118480 111.362686 -3.168963 -0.972952 29.873171 -0.126438 0.618274 -101.280434 -4.081288 -0.581400 113.446831 2.168498 -0.274900 29.957985 0.819717 0.864941 
0.000000 43.649078 0.000000 0.099663 0.000000 0.000000 14.099174 0.000000 0.000000 9.599251 0.000000 0.000000 -29.202955 0.026703 -0.001536 -44.901302 0.000000 0.000000 -3.125399 1.154086 14.575643 48.786724 8.462596 -114.785835 -90.112221 1.024553 -0.441302 4.181742 -7.062459 13.186877 2.458298 -2.018450 6.883100 -54.675716 36.497631 -112.697800 93.379990 -31.039331 -3.156339 3.290360 1.010257 -5.678926 -100.877647 1.792180 -0.118480 111.362686 -3.168963 -0.972952 29.873171 -0.126438 0.618274 -101.280434 -4.081288 -0.581400 113.446831 2.168498 -0.274900 29.957985 0.819717 0.864941 
0.000000 43.624187 0.000000 0.099663 0.000000 0.000000 14.099174 0.000000 0.000000 9.999413 0.000000 0.000000 -29.202955 0.026703 -0.001536 -44.901302 0.000000 0.000000 -3.121045 1.369619 14.036153 48.785965 8.463601 -114.787132 -90.112221 1.023847 -0.442009 3.928313 -7.033472 12.949686 2.206756 -2.052855 6.369890 -54.755192 36.512882 -112.743263 93.380615 -31.038805 -3.156364 3.203299 0.656304 -5.898538 -100.877647 1.792180 -0.118480 111.362686 -3.168963 -0.972952 29.873171 -0.126438 0.618274 -101.280434 -4.081288 -0.581400 113.446831 2.168498 -0.274900 29.957985 0.819717 0.864941 
0.000000 43.599300 0.000000 0.099663 0.000000 0.000000 14.099174 0.000000 0.000000 10.399570 0.000000 0.000000 -29.202955 0.026703 -0.001536 -44.901302 0.000000 0.000000 -3.114663 1.585096 13.496615 48.785210 8.464603 -114.788422 -90.112213 1.023141 -0.442716 3.674778 -7.005524 12.712379 1.954915 -2.085006 5.856534 -54.834755 36.528107 -112.788811 93.381226 -31.038275 -3.156389 3.117601 0.302025 -6.117601 -100.877647 1.792180 -0.118480 111.362686 -3.168963 -0.972952 29.873171 -0.126438 0.618274 -101.280434 -4.081288 -0.581400 113.446831 2.168498 -0.274900 29.957985 0.819717 0.864941 
0.000000 43.574413 0.000000 0.099663 0.000000 0.000000 14.099174 0.000000 0.000000 10.799711 0.000000 0.000000 -29.202955 0.026703 -0.001536 -44.901302 0.000000 0.000000 -3.106250 1.800487 12.957032 48.784454 8.465610 -114.789719 -90.112213 1.022435 -0.443424 3.421146 -6.978622 12.474971 1.702810 -2.114900 5.343071 -54.914371 36.543304 -112.834450 93.381844 -31.037750 -3.156414 3.033263 -0.052564 -6.336120 -100.877647 1.792180 -0.118480 111.362686 -3.168963 -0.972952 29.873171 -0.126438 0.618274 -101.280434 -4.081288 -0.581400 113.446831 2.168498 -0.274900 29.957985 0.819717 0.864941 
0.000000 43.549526 0.000000 0.099663 0.000000 0.000000 14.099174 0.000000 0.000000 11.199829 0.000000 0.000000 -29.202955 0.026703 -0.001536 -44.901302 0.000000 0.000000 -3.095809 2.015761 12.417418 48.783695 8.466612 -114.791000 -90.112206 1.021730 -0.444131 3.167425 -6.952761 12.237459 1.450473 -2.142530 4.829533 -54.994068 36.558487 -112.880150 93.382446 -31.037220 -3.156439 2.950281 -0.407447 -6.554108 -100.877647 1.792180 -0.118480 111.362686 -3.168963 -0.972952 29.873171 -0.126438 0.618274 -101.280434 -4.081288 -0.581400 113.446831 2.168498 -0.274900 29.957985 0.819717 0.864941 
